# xmcd CD database file
#
# Track frame offsets:
#	150
#	32544
#	50922
#	59394
#	68662
#	74997
#	95921
#	101125
#	131988
#	144719
#	174424
#
# Disc length: 2756 seconds
#
# Revision: 0
# Processed by: cddbd v1.5.1PL2 Copyright (c) Steve Scherf et al.
# Submitted via: CDex 1.51
#
DISCID=b50ac20b
DTITLE=Cristina Zavalloni - When You Go Yes Is Yes!
DYEAR=2003
DGENRE=Jazz
TTITLE0=Afro Tin-Tin
TTITLE1=Le Soleil et la Lune
TTITLE2=E' un'altra cosa
TTITLE3=Il ballo del mattone
TTITLE4=Jason (introduction)
TTITLE5=Jason
TTITLE6=Jingle
TTITLE7=Helas
TTITLE8=Free Funk
TTITLE9=Youkali
TTITLE10=Jim Song
EXTD=YEAR: 2003
EXTT0=
EXTT1=
EXTT2=
EXTT3=
EXTT4=
EXTT5=
EXTT6=
EXTT7=
EXTT8=
EXTT9=
EXTT10=
PLAYORDER=
